<svg width="32" height="32" viewBox="0 0 32 32" fill="none" xmlns="http://www.w3.org/2000/svg">
<g clip-path="url(#clip0_15_23)">
<path d="M23.0722 5.47766L15.7268 0.579987C14.567 -0.193329 13.1495 -0.193329 11.9897 0.579987L4.51546 5.47766C4.12887 5.60654 4 5.9932 4 6.37986V7.79761V7.92649V22.4906C4 23.2639 4.64433 23.9084 5.41753 23.9084H22.1701C22.9433 23.9084 23.5876 23.2639 23.5876 22.4906V7.92649V7.79761V6.37986C23.5876 5.9932 23.4588 5.60654 23.0722 5.47766Z" fill="url(#paint0_linear_15_23)"/>
<foreignObject x="-2.27063" y="-6.77045" width="41.0206" height="45.7131"><div xmlns="http://www.w3.org/1999/xhtml" style="backdrop-filter:blur(4.88px);clip-path:url(#bgblur_1_15_23_clip_path);height:100%;width:100%"></div></foreignObject><g filter="url(#filter0_i_15_23)" data-figma-bg-blur-radius="9.75">
<path d="M16.1134 3.67325L7.99483 8.95758C7.60824 9.08646 7.47937 9.47312 7.47937 9.85978V27.6461C7.47937 28.5483 8.25257 29.1927 9.02576 29.1927H27.4536C28.3557 29.1927 29 28.4194 29 27.6461V9.85978C29 9.47312 28.7423 9.08646 28.4845 8.82869L20.2371 3.54436C19.0773 2.77104 17.4021 2.77104 16.1134 3.67325Z" fill="#F1F1F1" fill-opacity="0.2"/>
<path d="M16.1134 3.67325L7.99483 8.95758C7.60824 9.08646 7.47937 9.47312 7.47937 9.85978V27.6461C7.47937 28.5483 8.25257 29.1927 9.02576 29.1927H27.4536C28.3557 29.1927 29 28.4194 29 27.6461V9.85978C29 9.47312 28.7423 9.08646 28.4845 8.82869L20.2371 3.54436C19.0773 2.77104 17.4021 2.77104 16.1134 3.67325Z" fill="url(#paint1_linear_15_23)" fill-opacity="0.1"/>
<path d="M16.285 3.91901C17.4767 3.08474 19.0176 3.09237 20.0702 3.79401L20.0751 3.79694L28.2899 9.05963C28.5195 9.29542 28.6999 9.59933 28.7001 9.85944V27.6465C28.6998 28.2703 28.174 28.8924 27.454 28.8926H9.02625C8.40253 28.8926 7.77945 28.3669 7.77917 27.6465V9.85944C7.77925 9.51428 7.89225 9.30809 8.08972 9.24225L8.12585 9.22955L8.15808 9.20905L16.2772 3.92487L16.285 3.91901Z" stroke="url(#paint2_linear_15_23)" stroke-opacity="0.1" stroke-width="0.6"/>
</g>
<foreignObject x="-10.2393" y="-2.31685" width="56.958" height="49.2282"><div xmlns="http://www.w3.org/1999/xhtml" style="backdrop-filter:blur(8.86px);clip-path:url(#bgblur_2_15_23_clip_path);height:100%;width:100%"></div></foreignObject><g filter="url(#filter1_d_15_23)" data-figma-bg-blur-radius="17.7187">
<path d="M27.7113 26.0994V16.1752C27.7113 15.6596 27.3247 15.4019 26.9381 15.4019H26.1649C25.6495 15.4019 25.3917 15.7885 25.3917 16.1752V26.0994H22.5567V16.1752C22.5567 15.6596 22.1701 15.4019 21.7835 15.4019H20.7526C20.2371 15.4019 19.9794 15.7885 19.9794 16.1752V26.0994H17.1443V16.1752C17.1443 15.6596 16.7577 15.4019 16.3711 15.4019H15.3402C14.8247 15.4019 14.567 15.7885 14.567 16.1752V26.0994H11.7319V16.1752C11.7319 15.6596 11.3453 15.4019 10.9588 15.4019H10.0567C9.54123 15.4019 9.28349 15.7885 9.28349 16.1752V26.0994H9.02576C8.1237 26.0994 7.47937 26.8727 7.47937 27.646C7.47937 28.4194 8.25257 29.1927 9.02576 29.1927H27.4536C28.3557 29.1927 29 28.4194 29 27.646C29 26.8727 28.4845 26.2283 27.7113 26.0994Z" fill="url(#paint3_linear_15_23)"/>
<path d="M10.0565 15.52H10.9589C11.1269 15.52 11.2913 15.5759 11.412 15.6831C11.5305 15.7885 11.6141 15.9496 11.6141 16.1753V26.2173H14.6854V16.1753C14.6854 16.0072 14.7413 15.8429 14.8485 15.7222C14.9538 15.6037 15.1143 15.5201 15.3397 15.52H16.371C16.539 15.52 16.7034 15.5759 16.8241 15.6831C16.9426 15.7885 17.0262 15.9496 17.0262 16.1753V26.2173H20.0975V16.1753C20.0975 16.0073 20.1535 15.8429 20.2606 15.7222C20.366 15.6036 20.5271 15.52 20.7528 15.52H21.7831C21.951 15.52 22.1155 15.576 22.2362 15.6831C22.3547 15.7885 22.4384 15.9496 22.4384 16.1753V26.2173H25.5096V16.1753C25.5096 16.0071 25.5664 15.8429 25.6737 15.7222C25.7791 15.6037 25.9393 15.52 26.1649 15.52H26.9384C27.1064 15.5201 27.2708 15.5759 27.3915 15.6831C27.51 15.7885 27.5936 15.9496 27.5936 16.1753V26.1997L27.6923 26.2163C28.4054 26.3354 28.8817 26.9277 28.8817 27.646C28.8817 28.3604 28.2843 29.0745 27.454 29.0747H9.02625C8.67807 29.0747 8.31915 28.8989 8.04578 28.6255C7.77261 28.3521 7.59753 27.9941 7.59753 27.646C7.59756 26.9315 8.19572 26.2173 9.02625 26.2173H9.40125V16.1753C9.40125 16.0071 9.45802 15.8429 9.56531 15.7222C9.67064 15.6037 9.83094 15.5201 10.0565 15.52Z" stroke="url(#paint4_linear_15_23)" stroke-opacity="0.5" stroke-width="0.236249"/>
</g>
<g filter="url(#filter2_d_15_23)">
<path d="M16.1134 3.67325L7.99483 8.95758C7.60824 9.08646 7.47937 9.47312 7.47937 9.85978V11.6642C7.47937 12.3086 7.99483 12.8242 8.63916 12.8242H27.8402C28.4845 12.8242 29 12.3086 29 11.6642V9.85978C29 9.47312 28.7423 9.08646 28.4845 8.82869L20.2371 3.54436C19.0773 2.77104 17.4021 2.77104 16.1134 3.67325Z" fill="url(#paint5_linear_15_23)"/>
<path d="M16.1815 3.76959C17.432 2.89442 19.0543 2.89755 20.1718 3.64264L20.1737 3.64362L28.4081 8.91901C28.6554 9.16868 28.8816 9.52315 28.8817 9.85944V11.6641C28.8817 12.2433 28.4188 12.7061 27.8397 12.7061H8.63953C8.06045 12.7061 7.59753 12.2433 7.59753 11.6641V9.85944C7.59761 9.48919 7.72005 9.17344 8.0321 9.0694L8.04675 9.06451L8.05945 9.0567L16.1776 3.77252L16.1815 3.76959Z" stroke="url(#paint6_linear_15_23)" stroke-opacity="0.5" stroke-width="0.236249"/>
</g>
</g>
<defs>
<filter id="filter0_i_15_23" x="-2.27063" y="-6.77045" width="41.0206" height="45.7131" filterUnits="userSpaceOnUse" color-interpolation-filters="sRGB">
<feFlood flood-opacity="0" result="BackgroundImageFix"/>
<feBlend mode="normal" in="SourceGraphic" in2="BackgroundImageFix" result="shape"/>
<feColorMatrix in="SourceAlpha" type="matrix" values="0 0 0 0 0 0 0 0 0 0 0 0 0 0 0 0 0 0 127 0" result="hardAlpha"/>
<feOffset dy="1.625"/>
<feGaussianBlur stdDeviation="3.25"/>
<feComposite in2="hardAlpha" operator="arithmetic" k2="-1" k3="1"/>
<feColorMatrix type="matrix" values="0 0 0 0 1 0 0 0 0 1 0 0 0 0 1 0 0 0 0.4 0"/>
<feBlend mode="normal" in2="shape" result="effect1_innerShadow_15_23"/>
</filter>
<clipPath id="bgblur_1_15_23_clip_path" transform="translate(2.27063 6.77045)"><path d="M16.1134 3.67325L7.99483 8.95758C7.60824 9.08646 7.47937 9.47312 7.47937 9.85978V27.6461C7.47937 28.5483 8.25257 29.1927 9.02576 29.1927H27.4536C28.3557 29.1927 29 28.4194 29 27.6461V9.85978C29 9.47312 28.7423 9.08646 28.4845 8.82869L20.2371 3.54436C19.0773 2.77104 17.4021 2.77104 16.1134 3.67325Z"/>
</clipPath><filter id="filter1_d_15_23" x="-10.2393" y="-2.31685" width="56.958" height="49.2282" filterUnits="userSpaceOnUse" color-interpolation-filters="sRGB">
<feFlood flood-opacity="0" result="BackgroundImageFix"/>
<feColorMatrix in="SourceAlpha" type="matrix" values="0 0 0 0 0 0 0 0 0 0 0 0 0 0 0 0 0 0 127 0" result="hardAlpha"/>
<feOffset/>
<feGaussianBlur stdDeviation="2.5"/>
<feColorMatrix type="matrix" values="0 0 0 0 0.554167 0 0 0 0 0.626956 0 0 0 0 1 0 0 0 0.5 0"/>
<feBlend mode="normal" in2="BackgroundImageFix" result="effect1_dropShadow_15_23"/>
<feBlend mode="normal" in="SourceGraphic" in2="effect1_dropShadow_15_23" result="shape"/>
</filter>
<clipPath id="bgblur_2_15_23_clip_path" transform="translate(10.2393 2.31685)"><path d="M27.7113 26.0994V16.1752C27.7113 15.6596 27.3247 15.4019 26.9381 15.4019H26.1649C25.6495 15.4019 25.3917 15.7885 25.3917 16.1752V26.0994H22.5567V16.1752C22.5567 15.6596 22.1701 15.4019 21.7835 15.4019H20.7526C20.2371 15.4019 19.9794 15.7885 19.9794 16.1752V26.0994H17.1443V16.1752C17.1443 15.6596 16.7577 15.4019 16.3711 15.4019H15.3402C14.8247 15.4019 14.567 15.7885 14.567 16.1752V26.0994H11.7319V16.1752C11.7319 15.6596 11.3453 15.4019 10.9588 15.4019H10.0567C9.54123 15.4019 9.28349 15.7885 9.28349 16.1752V26.0994H9.02576C8.1237 26.0994 7.47937 26.8727 7.47937 27.646C7.47937 28.4194 8.25257 29.1927 9.02576 29.1927H27.4536C28.3557 29.1927 29 28.4194 29 27.646C29 26.8727 28.4845 26.2283 27.7113 26.0994Z"/>
</clipPath><filter id="filter2_d_15_23" x="-10.2393" y="-14.7392" width="56.958" height="45.282" filterUnits="userSpaceOnUse" color-interpolation-filters="sRGB">
<feFlood flood-opacity="0" result="BackgroundImageFix"/>
<feColorMatrix in="SourceAlpha" type="matrix" values="0 0 0 0 0 0 0 0 0 0 0 0 0 0 0 0 0 0 127 0" result="hardAlpha"/>
<feOffset dx="-1.5" dy="2"/>
<feGaussianBlur stdDeviation="2.5"/>
<feColorMatrix type="matrix" values="0 0 0 0 0.554167 0 0 0 0 0.626956 0 0 0 0 1 0 0 0 0.5 0"/>
<feBlend mode="normal" in2="BackgroundImageFix" result="effect1_dropShadow_15_23"/>
<feBlend mode="normal" in="SourceGraphic" in2="effect1_dropShadow_15_23" result="shape"/>
</filter>
<linearGradient id="paint0_linear_15_23" x1="4.81615" y1="4.78168" x2="26.302" y2="7.22652" gradientUnits="userSpaceOnUse">
<stop stop-color="#A9E0FF"/>
<stop offset="1" stop-color="#8DA0FF"/>
</linearGradient>
<linearGradient id="paint1_linear_15_23" x1="7.47937" y1="2.88553" x2="35.0416" y2="14.4891" gradientUnits="userSpaceOnUse">
<stop stop-color="#A9E0FF"/>
<stop offset="1" stop-color="#8DA0FF"/>
</linearGradient>
<linearGradient id="paint2_linear_15_23" x1="8.15189" y1="4.17106" x2="29" y2="4.17106" gradientUnits="userSpaceOnUse">
<stop stop-color="#A9E0FF"/>
<stop offset="1" stop-color="#8DA0FF"/>
</linearGradient>
<linearGradient id="paint3_linear_15_23" x1="27.4742" y1="17.8922" x2="3.53874" y2="19.11" gradientUnits="userSpaceOnUse">
<stop stop-color="white"/>
<stop offset="1" stop-color="white" stop-opacity="0.2"/>
</linearGradient>
<linearGradient id="paint4_linear_15_23" x1="9.79761" y1="20.028" x2="28.0708" y2="20.1854" gradientUnits="userSpaceOnUse">
<stop stop-color="white"/>
<stop offset="1" stop-color="white" stop-opacity="0"/>
</linearGradient>
<linearGradient id="paint5_linear_15_23" x1="27.4742" y1="4.75729" x2="3.59807" y2="6.45905" gradientUnits="userSpaceOnUse">
<stop stop-color="white"/>
<stop offset="1" stop-color="white" stop-opacity="0.2"/>
</linearGradient>
<linearGradient id="paint6_linear_15_23" x1="9.79761" y1="6.28194" x2="28.0695" y2="6.50244" gradientUnits="userSpaceOnUse">
<stop stop-color="white"/>
<stop offset="1" stop-color="white" stop-opacity="0"/>
</linearGradient>
<clipPath id="clip0_15_23">
<rect width="32" height="32" fill="white"/>
</clipPath>
</defs>
</svg>
