<?xml version="1.0" encoding="UTF-8"?>
<svg version="1.1" xmlns="http://www.w3.org/2000/svg" width="508" height="508">
<path d="M0 0 C1.59581633 -0.000873 3.19163239 -0.00262571 4.78744692 -0.00517833 C9.1567557 -0.00963736 13.52596589 -0.00166809 17.89526212 0.00837779 C22.61293932 0.01703085 27.33061116 0.01409082 32.04829407 0.01257324 C40.21674983 0.01152557 48.38517358 0.01778992 56.55362129 0.02904892 C68.36375873 0.04531684 80.17388073 0.05051325 91.98402815 0.0530249 C111.14613475 0.05739997 130.30822431 0.07070399 149.47032166 0.08963013 C168.08229996 0.10799378 186.69427362 0.12214791 205.30625916 0.13064575 C206.45388794 0.1311712 207.60151673 0.13169665 208.78392214 0.13223802 C214.54135384 0.13484813 220.29878556 0.13737554 226.05621731 0.13986182 C273.80469682 0.16058847 321.55315782 0.1958089 369.30162048 0.24050903 C369.37028663 49.24439878 369.42314929 98.24828367 369.45481647 147.25221207 C369.45856859 153.0375364 369.46245156 158.82286063 369.46641541 164.60818481 C369.46720234 165.75993901 369.46798927 166.91169321 369.46880005 168.09834905 C369.48185406 186.74753695 369.5055079 205.39669711 369.53307887 224.04586856 C369.56113316 243.18154511 369.5777968 262.31720712 369.58388597 281.45290339 C369.58800235 293.26069796 369.60100386 305.06841411 369.62536988 316.87618454 C369.64122734 324.9731433 369.64602081 333.07006151 369.64212462 341.16703467 C369.6402031 345.838592 369.64314946 350.51001229 369.65923691 355.18154526 C369.67386824 359.46155264 369.67455189 363.74133121 369.66431717 368.02134927 C369.66305278 369.56660906 369.66683089 371.11188331 369.67627003 372.65711479 C369.75493842 386.33502561 367.83266876 398.15160533 358.19224548 408.50613403 C346.3954662 419.48934233 334.14594617 420.54435221 318.60324097 420.48101807 C317.00742463 420.48189106 315.41160858 420.48364378 313.81579405 420.4861964 C309.44648527 420.49065542 305.07727507 420.48268616 300.70797884 420.47264028 C295.99030164 420.46398721 291.27262981 420.46692725 286.5549469 420.46844482 C278.38649114 420.4694925 270.21806738 420.46322815 262.04961967 420.45196915 C250.23948224 420.43570123 238.42936024 420.43050482 226.61921281 420.42799316 C207.45710621 420.42361809 188.29501666 420.41031408 169.13291931 420.39138794 C150.52094101 420.37302429 131.90896734 420.35887015 113.29698181 420.35037231 C112.14935303 420.34984687 111.00172424 420.34932142 109.81931882 420.34878005 C104.06188713 420.34616994 98.3044554 420.34364253 92.54702365 420.34115624 C44.79854415 420.32042959 -2.94991685 420.28520916 -50.69837952 420.24050903 C-50.76704567 371.23661928 -50.81990833 322.23273439 -50.8515755 273.228806 C-50.85532763 267.44348167 -50.85921059 261.65815744 -50.86317444 255.87283325 C-50.86396137 254.72107905 -50.8647483 253.56932486 -50.86555908 252.38266902 C-50.87861309 233.73348111 -50.90226693 215.08432095 -50.9298379 196.43514951 C-50.95789219 177.29947296 -50.97455583 158.16381094 -50.980645 139.02811468 C-50.98476138 127.22032011 -50.9977629 115.41260396 -51.02212892 103.60483353 C-51.03798637 95.50787477 -51.04277984 87.41095655 -51.03888365 79.3139834 C-51.03696213 74.64242607 -51.03990849 69.97100578 -51.05599594 65.29947281 C-51.07062727 61.01946543 -51.07131093 56.73968686 -51.0610762 52.4596688 C-51.05981181 50.91440901 -51.06358993 49.36913476 -51.07302906 47.82390328 C-51.15169745 34.14599245 -49.22942779 22.32941274 -39.58900452 11.97488403 C-27.79222523 0.99167573 -15.5427052 -0.06333414 0 0 Z M115.27818298 107.52566528 C106.57184146 119.48398023 106.30162048 131.42923862 106.30162048 146.24050903 C128.74162048 146.24050903 151.18162048 146.24050903 174.30162048 146.24050903 C174.30162048 203.66050903 174.30162048 261.08050903 174.30162048 320.24050903 C200.43880082 320.48703658 200.43880082 320.48703658 221.74302673 308.01785278 C232.9460194 296.37190819 235.61989371 283.58955182 235.52867126 267.93972778 C235.52896332 266.62182755 235.52925537 265.30392731 235.52955627 263.9460907 C235.53012724 260.35364837 235.51841474 256.76134114 235.50440836 253.16893005 C235.491858 249.40666397 235.49072712 245.64439438 235.48835754 241.8821106 C235.48215538 234.7672795 235.46576176 227.65251029 235.44565856 220.53770638 C235.42326012 212.43369344 235.41229623 204.32967746 235.40226769 196.22564125 C235.38139434 179.56389436 235.34624307 162.90220961 235.30162048 146.24050903 C236.51632019 146.25621948 237.7310199 146.27192993 238.98252869 146.28811646 C243.5355198 146.3428579 248.08848246 146.37701836 252.64170837 146.40530396 C254.60367238 146.42029062 256.56560346 146.44068697 258.52745056 146.46682739 C276.49896922 146.70010493 290.52675332 145.17520269 304.22740173 132.47879028 C313.11856237 122.884374 316.50340861 111.21037341 316.36412048 98.42800903 C316.35735291 97.24561646 316.35735291 97.24561646 316.35044861 96.03933716 C316.3387336 94.10636143 316.32080047 92.17342511 316.30162048 90.24050903 C294.23055036 90.1468942 272.15951317 90.07644595 250.08828449 90.03326035 C239.83926044 90.01267181 229.59036006 89.98462238 219.34141541 89.93875122 C210.40407814 89.89876962 201.46683047 89.87304929 192.52940625 89.86415505 C187.80102927 89.85895942 183.07290854 89.84682578 178.34461403 89.81758881 C173.88520391 89.79024042 169.4261532 89.78210288 164.96666718 89.78807831 C163.33858722 89.78698669 161.71049401 89.77914923 160.08248711 89.76368713 C142.3181011 89.60338443 127.1514266 93.5756529 115.27818298 107.52566528 Z M23.93052673 106.27175903 C15.65259079 116.27674636 12.87525074 127.23905698 12.78990173 140.03347778 C12.77190521 141.11362152 12.75390869 142.19376526 12.73536682 143.30664062 C12.67944361 147.01372954 12.64627278 150.72064213 12.61412048 154.42800903 C12.58932646 156.42768522 12.56451532 158.42736129 12.5389452 160.4270277 C11.86833021 214.35464495 12.22788953 268.31041188 12.30162048 322.24050903 C33.09162048 322.24050903 53.88162048 322.24050903 75.30162048 322.24050903 C75.32436441 298.17568464 75.34271289 274.11086921 75.35343266 250.04603672 C75.35854661 238.86744865 75.36549343 227.68886783 75.37705994 216.51028442 C75.38715912 206.74498916 75.39350932 196.97969915 75.39570898 187.2143988 C75.39699079 182.06381479 75.39990981 176.9132458 75.40735054 171.7626667 C75.44467172 144.90619615 75.09840883 118.08559336 74.30162048 91.24050903 C72.50254075 91.19906222 70.70345132 91.15803612 68.90435791 91.1171875 C67.90249104 91.09429594 66.90062418 91.07140438 65.86839771 91.04781914 C48.9042039 90.70266592 36.00524494 93.49665114 23.93052673 106.27175903 Z " fill="#F57615" transform="translate(94.69837951660156,43.759490966796875)"/>
<path d="M0 0 C1.80963406 -0.00131036 3.61926755 -0.00394102 5.42889804 -0.0077675 C10.37068666 -0.01443907 15.31227825 -0.0025259 20.25404179 0.01256669 C25.5946945 0.02557108 30.93533688 0.02113448 36.27600098 0.01885986 C45.51881334 0.01728991 54.76156196 0.02667006 64.00435829 0.04357338 C77.3677371 0.0679965 90.73108522 0.07577204 104.09448393 0.07953735 C125.77782506 0.08609664 147.46113225 0.10604362 169.14445496 0.13444519 C190.20272146 0.16199929 211.26097874 0.18322626 232.31925964 0.19596863 C234.26763164 0.19715088 234.26763164 0.19715088 236.25536469 0.19835702 C242.77190146 0.20227225 249.28843828 0.20606335 255.80497515 0.20979273 C309.83148861 0.24087236 363.85796524 0.29369393 417.88444519 0.36076355 C417.97604579 55.63222063 418.04650682 110.90367003 418.08870651 166.17518812 C418.0937092 172.7038436 418.0988865 179.23249892 418.10417175 185.76115417 C418.10522099 187.06086525 418.10627024 188.36057632 418.10735127 189.69967258 C418.12474577 210.73096389 418.15627823 231.76221137 418.19305637 252.7934767 C418.23049232 274.38130813 418.25268667 295.96911663 418.26079917 317.55697918 C418.26628142 330.87261091 418.28358265 344.18811872 418.31611106 357.5037123 C418.33729168 366.64074539 418.34363719 375.77771463 418.3384507 384.91477048 C418.33589447 390.18253072 418.33975059 395.45007475 418.36126709 400.71779633 C418.38085792 405.54958522 418.38163455 410.3810143 418.36804077 415.21282041 C418.36636286 416.95199723 418.37133027 418.69119732 418.38397792 420.43032897 C418.48007678 434.47192041 416.94885506 448.08762461 410.13444519 460.67326355 C409.78937927 461.33221619 409.44431335 461.99116882 409.08879089 462.67008972 C398.2514147 482.8563943 380.88282523 498.38659387 358.88444519 505.36076355 C348.4132863 508.48140293 338.57449627 508.78014433 327.76889038 508.7215271 C325.95925632 508.72283746 324.14962283 508.72546812 322.33999234 508.7292946 C317.39820372 508.73596616 312.45661214 508.724053 307.51484859 508.70896041 C302.17419588 508.69595602 296.8335535 508.70039262 291.4928894 508.70266724 C282.25007705 508.70423719 273.00732842 508.69485704 263.76453209 508.67795372 C250.40115328 508.6535306 237.03780516 508.64575506 223.67440645 508.64198975 C201.99106532 508.63543046 180.30775813 508.61548348 158.62443542 508.58708191 C137.56616892 508.55952781 116.50791164 508.53830084 95.44963074 508.52555847 C94.15071607 508.5247703 92.8518014 508.52398213 91.51352569 508.52317008 C84.99698893 508.51925485 78.4804521 508.51546375 71.96391523 508.51173437 C17.93740177 508.48065474 -36.08907486 508.42783317 -90.11555481 508.36076355 C-90.20715541 453.08930647 -90.27761644 397.81785707 -90.31981613 342.54633898 C-90.32481882 336.0176835 -90.32999612 329.48902818 -90.33528137 322.96037292 C-90.33633061 321.66066185 -90.33737986 320.36095078 -90.33846089 319.02185452 C-90.35585539 297.99056321 -90.38738785 276.95931573 -90.42416599 255.9280504 C-90.46160194 234.34021897 -90.48379628 212.75241047 -90.49190879 191.16454792 C-90.49739104 177.84891619 -90.51469227 164.53340838 -90.54722068 151.2178148 C-90.5684013 142.08078171 -90.57474681 132.94381247 -90.56956032 123.80675662 C-90.56700409 118.53899638 -90.57086021 113.27145235 -90.59237671 108.00373077 C-90.61196754 103.17194188 -90.61274417 98.3405128 -90.59915039 93.50870669 C-90.59747248 91.76952987 -90.60243989 90.03032978 -90.61508754 88.29119813 C-90.7111864 74.24960669 -89.17996467 60.63390249 -82.36555481 48.04826355 C-82.02048889 47.38931091 -81.67542297 46.73035828 -81.31990051 46.05143738 C-70.48252432 25.8651328 -53.11393485 10.33493323 -31.11555481 3.36076355 C-20.64439592 0.24012417 -10.80560589 -0.05861723 0 0 Z M-63.67414856 35.2396698 C-77.63462639 52.91980277 -81.76117619 71.54999476 -81.59657288 93.50177002 C-81.59832187 95.26535983 -81.60183277 97.0289486 -81.60692954 98.79253191 C-81.61578899 103.58852681 -81.59999173 108.3841581 -81.5798173 113.18010676 C-81.56242502 118.37072119 -81.56839727 123.56131772 -81.57142639 128.75195312 C-81.57351636 137.72843281 -81.56104447 146.70479553 -81.53847504 155.6812458 C-81.50586548 168.65941449 -81.49553888 181.63752704 -81.49052307 194.61573225 C-81.48178443 215.67571283 -81.45520778 236.73563118 -81.41731262 257.795578 C-81.38055543 278.24446808 -81.35226183 298.69334121 -81.33528137 319.14225769 C-81.33423048 320.40427752 -81.33317958 321.66629734 -81.33209684 322.96656019 C-81.32687642 329.29820551 -81.32182165 335.62985095 -81.31684923 341.96149647 C-81.27543178 394.42796182 -81.20502244 446.89435964 -81.11555481 499.36076355 C-27.3898491 499.45237859 26.33584869 499.5228325 80.06161719 499.56502487 C86.40872861 499.57002752 92.75583987 499.57520482 99.10295105 499.58049011 C100.99829313 499.58206397 100.99829313 499.58206397 102.93192495 499.58366963 C123.37408747 499.60106071 143.81620487 499.63259127 164.25834065 499.66937473 C185.24388021 499.70682023 206.22939619 499.72900704 227.21496779 499.73711753 C240.15747821 499.7425978 253.09986104 499.75988825 266.04233218 499.79242942 C274.92520662 499.81362184 283.80801539 499.81995289 292.69091325 499.81476906 C297.81095543 499.81221465 302.93077512 499.81604787 308.05077744 499.83758545 C312.74877455 499.85720237 317.44640179 499.85793643 322.14441676 499.84435913 C323.8338138 499.84268371 325.52323494 499.84762884 327.21258532 499.86029628 C350.76199869 500.02644791 371.33135071 493.57049349 388.42008972 476.86906433 C401.49121721 463.40567226 409.01300938 444.67910564 409.00749302 426.00071144 C409.00922379 424.91652118 409.00922379 424.91652118 409.01098952 423.81042808 C409.01363697 421.38778103 409.00914944 418.9652004 409.00469971 416.54255676 C409.00513579 414.78846292 409.00601138 413.03436914 409.00728887 411.2802757 C409.00952652 406.45955619 409.00552249 401.63885886 409.00051081 396.81814218 C408.99619606 391.61983506 408.99765347 386.42152922 408.99841309 381.22322083 C408.99893767 372.2165815 408.9957977 363.20994942 408.99017525 354.20331192 C408.98205139 341.18119339 408.97944412 328.15907836 408.97818726 315.13695757 C408.97599813 294.00989742 408.96934182 272.88284113 408.95988464 251.75578308 C408.95070692 231.23169474 408.94362784 210.70760744 408.93937683 190.18351746 C408.93911411 188.91860767 408.93885138 187.65369789 408.9385807 186.3504575 C408.93727567 180.00483511 408.93601196 173.6592127 408.9347688 167.31359029 C408.92440053 114.66264537 408.906786 62.01170465 408.88444519 9.36076355 C355.15873948 9.26914851 301.43304169 9.1986946 247.70727319 9.15650223 C241.36016178 9.15149958 235.01305052 9.14632228 228.66593933 9.14103699 C227.40237795 9.13998775 226.13881656 9.1389385 224.83696543 9.13785747 C204.39480291 9.12046639 183.95268551 9.08893583 163.51054973 9.05215237 C142.52501017 9.01470687 121.53949419 8.99252006 100.55392259 8.98440957 C87.61141217 8.9789293 74.66902934 8.96163885 61.7265582 8.92909768 C52.84368376 8.90790526 43.960875 8.9015742 35.07797713 8.90675804 C29.95793495 8.90931245 24.83811526 8.90547923 19.71811295 8.88394165 C15.02011583 8.86432473 10.32248859 8.86359067 5.62447362 8.87716797 C3.93507658 8.87884339 2.24565544 8.87389825 0.55630506 8.86123082 C-24.49119631 8.68450951 -46.74399671 16.19001803 -63.67414856 35.2396698 Z " fill="#F47015" transform="translate(90.11555480957031,-0.3607635498046875)"/>
</svg>
