<svg width="32" height="32" viewBox="0 0 32 32" fill="none" xmlns="http://www.w3.org/2000/svg">
<path d="M26.8253 8.125H8.73018C5.87231 8.125 3.55554 10.3664 3.55554 13.1312V24.9938C3.55554 27.7586 5.87231 30 8.73018 30H26.8253C29.6832 30 32 27.7586 32 24.9938V13.1312C32 10.3664 29.6832 8.125 26.8253 8.125Z" fill="url(#paint0_linear_51_2)"/>
<foreignObject x="-9.75" y="-1.83295" width="47.9445" height="41.5829"><div xmlns="http://www.w3.org/1999/xhtml" style="backdrop-filter:blur(4.88px);clip-path:url(#bgblur_0_51_2_clip_path);height:100%;width:100%"></div></foreignObject><g filter="url(#filter0_i_51_2)" data-figma-bg-blur-radius="9.75">
<path d="M23.2698 7.91705H5.17464C2.31676 7.91705 0 10.1797 0 12.9709V24.9462C0 27.7373 2.31676 30 5.17464 30H23.2698C26.1277 30 28.4444 27.7373 28.4444 24.9462V12.9709C28.4444 10.1797 26.1277 7.91705 23.2698 7.91705Z" fill="#F1F1F1" fill-opacity="0.1"/>
<path d="M23.2698 7.91705H5.17464C2.31676 7.91705 0 10.1797 0 12.9709V24.9462C0 27.7373 2.31676 30 5.17464 30H23.2698C26.1277 30 28.4444 27.7373 28.4444 24.9462V12.9709C28.4444 10.1797 26.1277 7.91705 23.2698 7.91705Z" fill="url(#paint1_linear_51_2)" fill-opacity="0.1"/>
<path d="M5.1748 8.21686H23.2695C25.9684 8.21686 28.1445 10.352 28.1445 12.9708V24.9464C28.1444 27.5651 25.9684 29.7003 23.2695 29.7003H5.1748C2.47595 29.7003 0.299887 27.5651 0.299805 24.9464V12.9708C0.29986 10.352 2.47593 8.21686 5.1748 8.21686Z" stroke="url(#paint2_linear_51_2)" stroke-opacity="0.1" stroke-width="0.6"/>
</g>
<path d="M23.2617 9.40804C23.1029 9.41015 22.9452 9.38117 22.798 9.32276C22.6507 9.26435 22.517 9.17772 22.4047 9.06799C22.2923 8.95826 22.2036 8.82765 22.1438 8.68388C22.084 8.54011 22.0543 8.38608 22.0565 8.23091C22.0522 7.20131 21.6305 6.2153 20.8835 5.48873C20.1365 4.76215 19.1253 4.35424 18.071 4.35425H13.491C12.4396 4.35838 11.4324 4.76813 10.6889 5.49426C9.94543 6.22038 9.52586 7.20402 9.52163 8.23091C9.52163 8.5431 9.39465 8.84252 9.16862 9.06327C8.94259 9.28403 8.63602 9.40804 8.31636 9.40804C7.9967 9.40804 7.69013 9.28403 7.46409 9.06327C7.23806 8.84252 7.11108 8.5431 7.11108 8.23091C7.11108 6.56587 7.78833 4.96905 8.99383 3.79169C10.1993 2.61433 11.8344 1.95288 13.5392 1.95288H18.1193C19.8241 1.95288 21.4591 2.61433 22.6646 3.79169C23.8701 4.96905 24.5474 6.56587 24.5474 8.23091C24.5477 8.39232 24.5141 8.5521 24.4486 8.70028C24.383 8.84846 24.287 8.9819 24.1664 9.0923C24.0459 9.2027 23.9033 9.28769 23.7477 9.34201C23.5921 9.39633 23.4267 9.4188 23.2617 9.40804Z" fill="url(#paint3_linear_51_2)"/>
<foreignObject x="-9.75" y="-1.83295" width="47.9445" height="32.1188"><div xmlns="http://www.w3.org/1999/xhtml" style="backdrop-filter:blur(4.88px);clip-path:url(#bgblur_1_51_2_clip_path);height:100%;width:100%"></div></foreignObject><g filter="url(#filter1_i_51_2)" data-figma-bg-blur-radius="9.75">
<path d="M23.2698 7.91705H5.17464C2.31676 7.91705 0 10.1797 0 12.9709V15.4821C0 18.2732 2.31676 20.5359 5.17464 20.5359H23.2698C26.1277 20.5359 28.4444 18.2732 28.4444 15.4821V12.9709C28.4444 10.1797 26.1277 7.91705 23.2698 7.91705Z" fill="#F1F1F1" fill-opacity="0.1"/>
<path d="M23.2698 7.91705H5.17464C2.31676 7.91705 0 10.1797 0 12.9709V15.4821C0 18.2732 2.31676 20.5359 5.17464 20.5359H23.2698C26.1277 20.5359 28.4444 18.2732 28.4444 15.4821V12.9709C28.4444 10.1797 26.1277 7.91705 23.2698 7.91705Z" fill="url(#paint4_linear_51_2)" fill-opacity="0.1"/>
<path d="M5.1748 8.21686H23.2695C25.9684 8.21686 28.1445 10.352 28.1445 12.9708V15.4825C28.1443 18.1011 25.9683 20.2354 23.2695 20.2354H5.1748C2.47603 20.2354 0.30003 18.1011 0.299805 15.4825V12.9708C0.29986 10.352 2.47593 8.21686 5.1748 8.21686Z" stroke="url(#paint5_linear_51_2)" stroke-opacity="0.1" stroke-width="0.6"/>
</g>
<foreignObject x="-9.75" y="-1.83295" width="47.9445" height="32.1188"><div xmlns="http://www.w3.org/1999/xhtml" style="backdrop-filter:blur(4.88px);clip-path:url(#bgblur_2_51_2_clip_path);height:100%;width:100%"></div></foreignObject><g filter="url(#filter2_i_51_2)" data-figma-bg-blur-radius="9.75">
<path d="M23.2698 7.91705H5.17464C2.31676 7.91705 0 10.1797 0 12.9709V15.4821C0 18.2732 2.31676 20.5359 5.17464 20.5359H23.2698C26.1277 20.5359 28.4444 18.2732 28.4444 15.4821V12.9709C28.4444 10.1797 26.1277 7.91705 23.2698 7.91705Z" fill="#F1F1F1" fill-opacity="0.1"/>
<path d="M23.2698 7.91705H5.17464C2.31676 7.91705 0 10.1797 0 12.9709V15.4821C0 18.2732 2.31676 20.5359 5.17464 20.5359H23.2698C26.1277 20.5359 28.4444 18.2732 28.4444 15.4821V12.9709C28.4444 10.1797 26.1277 7.91705 23.2698 7.91705Z" fill="url(#paint6_linear_51_2)" fill-opacity="0.1"/>
<path d="M5.1748 8.21686H23.2695C25.9684 8.21686 28.1445 10.352 28.1445 12.9708V15.4825C28.1443 18.1011 25.9683 20.2354 23.2695 20.2354H5.1748C2.47603 20.2354 0.30003 18.1011 0.299805 15.4825V12.9708C0.29986 10.352 2.47593 8.21686 5.1748 8.21686Z" stroke="url(#paint7_linear_51_2)" stroke-opacity="0.1" stroke-width="0.6"/>
</g>
<foreignObject x="-6.43734" y="0.918072" width="41.3191" height="39.2513"><div xmlns="http://www.w3.org/1999/xhtml" style="backdrop-filter:blur(8.86px);clip-path:url(#bgblur_3_51_2_clip_path);height:100%;width:100%"></div></foreignObject><g filter="url(#filter3_d_51_2)" data-figma-bg-blur-radius="17.7187">
<path d="M16.3596 18.6368H12.0849C11.6411 18.6368 11.2814 18.9881 11.2814 19.4215V21.6659C11.2814 22.0993 11.6411 22.4507 12.0849 22.4507H16.3596C16.8034 22.4507 17.1631 22.0993 17.1631 21.6659V19.4215C17.1631 18.9881 16.8034 18.6368 16.3596 18.6368Z" fill="url(#paint8_linear_51_2)"/>
<path d="M12.0851 18.7549H16.3595C16.7407 18.7549 17.045 19.0564 17.045 19.4219V21.6661C17.045 22.0316 16.7406 22.3321 16.3595 22.3321H12.0851C11.704 22.3321 11.3996 22.0316 11.3995 21.6661V19.4219C11.3995 19.0564 11.7039 18.7549 12.0851 18.7549Z" stroke="url(#paint9_linear_51_2)" stroke-opacity="0.5" stroke-width="0.236249"/>
</g>
<defs>
<filter id="filter0_i_51_2" x="-9.75" y="-1.83295" width="47.9445" height="41.5829" filterUnits="userSpaceOnUse" color-interpolation-filters="sRGB">
<feFlood flood-opacity="0" result="BackgroundImageFix"/>
<feBlend mode="normal" in="SourceGraphic" in2="BackgroundImageFix" result="shape"/>
<feColorMatrix in="SourceAlpha" type="matrix" values="0 0 0 0 0 0 0 0 0 0 0 0 0 0 0 0 0 0 127 0" result="hardAlpha"/>
<feOffset dy="1.625"/>
<feGaussianBlur stdDeviation="3.25"/>
<feComposite in2="hardAlpha" operator="arithmetic" k2="-1" k3="1"/>
<feColorMatrix type="matrix" values="0 0 0 0 1 0 0 0 0 1 0 0 0 0 1 0 0 0 0.4 0"/>
<feBlend mode="normal" in2="shape" result="effect1_innerShadow_51_2"/>
</filter>
<clipPath id="bgblur_0_51_2_clip_path" transform="translate(9.75 1.83295)"><path d="M23.2698 7.91705H5.17464C2.31676 7.91705 0 10.1797 0 12.9709V24.9462C0 27.7373 2.31676 30 5.17464 30H23.2698C26.1277 30 28.4444 27.7373 28.4444 24.9462V12.9709C28.4444 10.1797 26.1277 7.91705 23.2698 7.91705Z"/>
</clipPath><filter id="filter1_i_51_2" x="-9.75" y="-1.83295" width="47.9445" height="32.1188" filterUnits="userSpaceOnUse" color-interpolation-filters="sRGB">
<feFlood flood-opacity="0" result="BackgroundImageFix"/>
<feBlend mode="normal" in="SourceGraphic" in2="BackgroundImageFix" result="shape"/>
<feColorMatrix in="SourceAlpha" type="matrix" values="0 0 0 0 0 0 0 0 0 0 0 0 0 0 0 0 0 0 127 0" result="hardAlpha"/>
<feOffset dy="1.625"/>
<feGaussianBlur stdDeviation="3.25"/>
<feComposite in2="hardAlpha" operator="arithmetic" k2="-1" k3="1"/>
<feColorMatrix type="matrix" values="0 0 0 0 1 0 0 0 0 1 0 0 0 0 1 0 0 0 0.4 0"/>
<feBlend mode="normal" in2="shape" result="effect1_innerShadow_51_2"/>
</filter>
<clipPath id="bgblur_1_51_2_clip_path" transform="translate(9.75 1.83295)"><path d="M23.2698 7.91705H5.17464C2.31676 7.91705 0 10.1797 0 12.9709V15.4821C0 18.2732 2.31676 20.5359 5.17464 20.5359H23.2698C26.1277 20.5359 28.4444 18.2732 28.4444 15.4821V12.9709C28.4444 10.1797 26.1277 7.91705 23.2698 7.91705Z"/>
</clipPath><filter id="filter2_i_51_2" x="-9.75" y="-1.83295" width="47.9445" height="32.1188" filterUnits="userSpaceOnUse" color-interpolation-filters="sRGB">
<feFlood flood-opacity="0" result="BackgroundImageFix"/>
<feBlend mode="normal" in="SourceGraphic" in2="BackgroundImageFix" result="shape"/>
<feColorMatrix in="SourceAlpha" type="matrix" values="0 0 0 0 0 0 0 0 0 0 0 0 0 0 0 0 0 0 127 0" result="hardAlpha"/>
<feOffset dy="1.625"/>
<feGaussianBlur stdDeviation="3.25"/>
<feComposite in2="hardAlpha" operator="arithmetic" k2="-1" k3="1"/>
<feColorMatrix type="matrix" values="0 0 0 0 1 0 0 0 0 1 0 0 0 0 1 0 0 0 0.4 0"/>
<feBlend mode="normal" in2="shape" result="effect1_innerShadow_51_2"/>
</filter>
<clipPath id="bgblur_2_51_2_clip_path" transform="translate(9.75 1.83295)"><path d="M23.2698 7.91705H5.17464C2.31676 7.91705 0 10.1797 0 12.9709V15.4821C0 18.2732 2.31676 20.5359 5.17464 20.5359H23.2698C26.1277 20.5359 28.4444 18.2732 28.4444 15.4821V12.9709C28.4444 10.1797 26.1277 7.91705 23.2698 7.91705Z"/>
</clipPath><filter id="filter3_d_51_2" x="-6.43734" y="0.918072" width="41.3191" height="39.2513" filterUnits="userSpaceOnUse" color-interpolation-filters="sRGB">
<feFlood flood-opacity="0" result="BackgroundImageFix"/>
<feColorMatrix in="SourceAlpha" type="matrix" values="0 0 0 0 0 0 0 0 0 0 0 0 0 0 0 0 0 0 127 0" result="hardAlpha"/>
<feOffset dx="-1.5" dy="1.5"/>
<feGaussianBlur stdDeviation="2.5"/>
<feColorMatrix type="matrix" values="0 0 0 0 0.15375 0 0 0 0 0.522433 0 0 0 0 0.9 0 0 0 0.3 0"/>
<feBlend mode="normal" in2="BackgroundImageFix" result="effect1_dropShadow_51_2"/>
<feBlend mode="normal" in="SourceGraphic" in2="effect1_dropShadow_51_2" result="shape"/>
</filter>
<clipPath id="bgblur_3_51_2_clip_path" transform="translate(6.43734 -0.918072)"><path d="M16.3596 18.6368H12.0849C11.6411 18.6368 11.2814 18.9881 11.2814 19.4215V21.6659C11.2814 22.0993 11.6411 22.4507 12.0849 22.4507H16.3596C16.8034 22.4507 17.1631 22.0993 17.1631 21.6659V19.4215C17.1631 18.9881 16.8034 18.6368 16.3596 18.6368Z"/>
</clipPath><linearGradient id="paint0_linear_51_2" x1="4.74073" y1="12.5" x2="35.3474" y2="18.0276" gradientUnits="userSpaceOnUse">
<stop stop-color="#7FFBE5"/>
<stop offset="1" stop-color="#84BEFA"/>
</linearGradient>
<linearGradient id="paint1_linear_51_2" x1="-1.08162e-07" y1="7.83785" x2="29.8595" y2="27.5605" gradientUnits="userSpaceOnUse">
<stop stop-color="#7FFBE5"/>
<stop offset="1" stop-color="#84BEFA"/>
</linearGradient>
<linearGradient id="paint2_linear_51_2" x1="0.888889" y1="8.92082" x2="28.4444" y2="8.92082" gradientUnits="userSpaceOnUse">
<stop stop-color="#7FFBE5"/>
<stop offset="1" stop-color="#84BEFA"/>
</linearGradient>
<linearGradient id="paint3_linear_51_2" x1="7.8376" y1="3.44444" x2="25.3633" y2="9.13542" gradientUnits="userSpaceOnUse">
<stop stop-color="#7FFBE5"/>
<stop offset="1" stop-color="#84BEFA"/>
</linearGradient>
<linearGradient id="paint4_linear_51_2" x1="-1.08162e-07" y1="7.87179" x2="18.3582" y2="29.092" gradientUnits="userSpaceOnUse">
<stop stop-color="#7FFBE5"/>
<stop offset="1" stop-color="#84BEFA"/>
</linearGradient>
<linearGradient id="paint5_linear_51_2" x1="0.888889" y1="8.49064" x2="28.4444" y2="8.49064" gradientUnits="userSpaceOnUse">
<stop stop-color="#7FFBE5"/>
<stop offset="1" stop-color="#84BEFA"/>
</linearGradient>
<linearGradient id="paint6_linear_51_2" x1="-1.08162e-07" y1="7.87179" x2="18.3582" y2="29.092" gradientUnits="userSpaceOnUse">
<stop stop-color="#7FFBE5"/>
<stop offset="1" stop-color="#84BEFA"/>
</linearGradient>
<linearGradient id="paint7_linear_51_2" x1="0.888889" y1="8.49064" x2="28.4444" y2="8.49064" gradientUnits="userSpaceOnUse">
<stop stop-color="#7FFBE5"/>
<stop offset="1" stop-color="#84BEFA"/>
</linearGradient>
<linearGradient id="paint8_linear_51_2" x1="16.7461" y1="19.3255" x2="10.204" y2="19.6544" gradientUnits="userSpaceOnUse">
<stop stop-color="white"/>
<stop offset="1" stop-color="white" stop-opacity="0.2"/>
</linearGradient>
<linearGradient id="paint9_linear_51_2" x1="11.915" y1="19.9162" x2="16.9092" y2="19.9587" gradientUnits="userSpaceOnUse">
<stop stop-color="white"/>
<stop offset="1" stop-color="white" stop-opacity="0"/>
</linearGradient>
</defs>
</svg>
